<svg width="436" height="298" viewBox="0 0 436 298" fill="none" xmlns="http://www.w3.org/2000/svg">
<g clip-path="url(#clip0_2_142)">
<path d="M151.487 285.453C151.14 285.469 150.797 285.378 150.504 285.192C150.21 285.007 149.981 284.735 149.847 284.415C149.713 284.095 149.681 283.741 149.755 283.401C149.828 283.062 150.005 282.754 150.26 282.518L150.376 282.057C150.361 282.02 150.345 281.983 150.33 281.946C149.98 281.12 149.395 280.417 148.647 279.923C147.898 279.429 147.021 279.168 146.125 279.171C145.228 279.174 144.353 279.443 143.608 279.942C142.864 280.441 142.284 281.149 141.94 281.977C140.568 285.282 138.821 288.592 138.391 292.086C138.202 293.63 138.282 295.196 138.627 296.713C135.404 289.683 133.731 282.043 133.72 274.31C133.72 272.369 133.827 270.43 134.043 268.501C134.221 266.92 134.469 265.351 134.785 263.792C136.513 255.336 140.222 247.41 145.607 240.666C148.214 239.243 150.321 237.057 151.647 234.399C152.127 233.444 152.466 232.425 152.654 231.372C152.36 231.411 151.546 226.933 151.767 226.658C151.358 226.037 150.624 225.728 150.177 225.121C147.951 222.103 144.884 222.63 143.284 226.731C139.864 228.457 139.831 231.319 141.929 234.072C143.264 235.823 143.448 238.193 144.619 240.068C144.498 240.222 144.373 240.372 144.252 240.526C142.05 243.358 140.13 246.4 138.52 249.607C138.912 246.014 138.444 242.38 137.157 239.003C135.852 235.855 133.407 233.205 131.253 230.484C128.667 227.216 123.363 228.642 122.907 232.785C122.902 232.825 122.898 232.865 122.894 232.905C123.214 233.086 123.527 233.277 123.833 233.48C124.218 233.737 124.516 234.104 124.689 234.534C124.861 234.963 124.9 235.435 124.8 235.887C124.7 236.339 124.465 236.75 124.128 237.066C123.79 237.383 123.364 237.59 122.907 237.66L122.86 237.667C122.974 238.82 123.176 239.963 123.463 241.085C120.7 251.768 126.664 255.66 135.181 255.834C135.369 255.931 135.552 256.027 135.74 256.119C134.123 260.701 133.108 265.475 132.722 270.319C132.504 273.176 132.517 276.047 132.761 278.903L132.747 278.802C132.129 275.626 130.435 272.761 127.95 270.69C124.259 267.658 119.045 266.541 115.063 264.104C114.64 263.833 114.148 263.688 113.645 263.687C113.142 263.685 112.649 263.828 112.225 264.098C111.8 264.367 111.462 264.753 111.249 265.208C111.036 265.664 110.959 266.171 111.025 266.669C111.03 266.705 111.035 266.74 111.041 266.776C111.634 267.018 112.212 267.296 112.771 267.61C113.091 267.79 113.404 267.982 113.711 268.184C114.095 268.441 114.394 268.809 114.566 269.238C114.739 269.668 114.777 270.139 114.677 270.591C114.577 271.043 114.343 271.454 114.005 271.771C113.667 272.087 113.242 272.294 112.784 272.365L112.738 272.372C112.704 272.377 112.675 272.382 112.641 272.386C113.655 274.808 115.079 277.037 116.849 278.975C118.577 288.302 125.996 289.186 133.932 286.471H133.937C134.808 290.254 136.07 293.937 137.702 297.46H151.15C151.199 297.311 151.242 297.157 151.285 297.007C150.04 297.085 148.791 297.011 147.564 296.786C148.562 295.561 149.56 294.327 150.557 293.103C150.58 293.08 150.601 293.056 150.62 293.031C151.126 292.404 151.637 291.782 152.143 291.156L152.144 291.155C152.171 289.234 151.95 287.318 151.487 285.453Z" fill="#F2F2F2"/>
<path d="M48.0455 265.113L51.7562 269.035L68.9861 256.27L63.5096 250.482L48.0455 265.113Z" fill="#A0616A"/>
<path d="M54.1261 267.282L49.9252 263.336L48.8936 262.37L38.1989 270.92L40.9809 273.86L44.2556 271.76L42.7512 275.731L50.1272 283.527C50.4806 283.901 50.9443 284.152 51.4506 284.244C51.9568 284.335 52.4792 284.263 52.9413 284.037C53.4035 283.811 53.7813 283.443 54.0196 282.987C54.2579 282.531 54.3443 282.011 54.266 281.502L52.6741 271.204L55.4793 268.551L54.1261 267.282Z" fill="#2F2E41"/>
<path d="M129.597 122.325L128.42 135.168C128.42 135.168 126.367 144.844 127.788 144.06C129.21 143.276 126.661 146.806 127.332 149.867C128.004 152.928 121.597 175.754 124.499 173.389C127.401 171.025 122.822 187.361 119.926 195.42C119.039 197.911 118.128 200.433 117.211 202.936C117.03 203.443 116.849 203.944 116.663 204.45C115.474 207.708 114.285 210.917 113.145 213.945C112.983 214.368 112.826 214.79 112.669 215.206C112.663 215.218 112.663 215.23 112.657 215.23C108.904 225.105 105.689 232.875 104.404 234.16C103.734 234.83 93.1109 242.503 82.4029 250.188C71.1641 258.254 59.8346 266.337 59.8346 266.337L49.2533 255.237C49.2533 255.237 49.5066 255.165 49.9832 255.02C50.864 254.767 52.4929 254.29 54.6285 253.657C63.5326 251.033 52.2213 246.949 60.3054 244.029C62.5856 243.209 64.1058 242.569 64.4496 242.231C66.4585 240.271 69.1553 235.596 70.4281 237.556C71.7009 239.517 77.4743 224.949 79.1392 223.507C80.0321 222.729 82.9459 219.091 85.4435 215.894C87.5909 213.143 89.4369 210.712 89.4369 210.712C89.4369 210.712 89.4731 209.409 89.5273 207.334C89.606 204.263 89.7206 199.492 89.8413 194.714C89.8351 194.708 89.8351 194.708 89.8413 194.708C89.8835 192.91 89.9256 191.113 89.968 189.405C89.9981 188.084 90.0281 186.812 90.0584 185.635C90.1368 182.112 90.191 179.446 90.191 178.782C90.191 176.605 90.191 178.3 91.9104 176.985C92.1671 176.783 92.4109 176.565 92.6403 176.333C93.0079 176.002 93.347 175.641 93.6539 175.253C93.7806 174.982 92.9903 175.35 91.9646 175.145C91.4092 175.033 90.8955 174.77 90.4806 174.385C88.3208 172.442 90.6496 166.47 90.6496 166.47C85.739 156.65 86.0951 148.596 88.3933 142.389C90.1119 137.934 92.8397 133.939 96.3624 130.716C97.7032 129.439 99.1639 128.293 100.724 127.296L100.875 126.482L102.534 117.499C103.416 117.015 104.334 116.597 105.279 116.251C108.225 115.193 111.387 114.878 114.485 115.334C117.563 115.779 120.543 116.744 123.298 118.187C125.551 119.318 127.664 120.707 129.597 122.325Z" fill="#2F2E41"/>
<path d="M83.263 285.123L88.6387 285.623L93.1687 264.664L85.2339 263.926L83.263 285.123Z" fill="#A0616A"/>
<path d="M98.7454 293.338L90.758 286.648L91.12 282.799L89.2622 282.739L83.507 282.552H83.5008L82.0893 282.504L79.6942 295.98L83.73 296.354L84.7978 292.614L86.288 296.596L88.4235 296.795L96.9718 297.591C97.0442 297.597 97.1226 297.603 97.1951 297.603C97.5349 297.603 97.8709 297.532 98.1809 297.392C98.4908 297.253 98.7676 297.049 98.9928 296.795C99.3427 296.412 99.5568 295.924 99.602 295.407C99.6373 295.019 99.5778 294.627 99.4286 294.267C99.2794 293.907 99.045 293.588 98.7454 293.338Z" fill="#2F2E41"/>
<path d="M113.145 213.945C111.1 225.075 102.443 251.171 97.2071 266.446C94.8241 273.425 93.1592 278.148 93.1592 278.148L90.4445 277.292H90.4383L85.8475 275.844L84.1765 275.313H84.1703L82.1434 274.668C82.1434 274.668 82.3787 262.205 82.4029 250.188C82.4209 245.151 82.3967 240.186 82.3004 236.253C82.1917 231.964 82.0046 228.894 81.6971 228.284C80.424 225.787 82.5537 225.522 84.8039 224.894C87.06 224.261 85.2985 223.308 84.4236 221.281C83.8327 219.929 84.9968 218.126 85.8234 217.1C86.0514 216.812 86.2951 216.536 86.5533 216.274C86.5533 216.274 86.1551 216.135 85.4434 215.894C87.5908 213.143 89.4368 210.712 89.4368 210.712C89.4368 210.712 89.4731 209.409 89.5273 207.334C89.6059 204.263 89.7205 199.492 89.8413 194.714C89.8351 194.708 89.8351 194.708 89.8413 194.708C89.8834 192.91 89.9255 191.113 89.968 189.405C93.4185 192.054 96.7727 194.648 99.8132 197.049C99.8169 197.052 99.8199 197.055 99.822 197.059C99.8241 197.064 99.8252 197.068 99.8252 197.073C107.131 202.846 112.615 207.479 113.387 208.951C113.737 209.614 113.616 211.388 113.145 213.945Z" fill="#2F2E41"/>
<path d="M292.997 17.4292C294.002 17.3352 295.005 17.6373 295.791 18.2712C296.578 18.9051 297.086 19.8208 297.207 20.8235C297.229 21.0277 297.233 21.2333 297.221 21.4382L309.661 26.7505L309.186 34.0112L292.931 24.8916C292.085 24.7742 291.302 24.3801 290.704 23.7708C290.106 23.1614 289.726 22.3712 289.624 21.5234C289.57 21.0404 289.613 20.5516 289.748 20.085C289.884 19.6183 290.11 19.1829 290.414 18.8037C290.717 18.4244 291.093 18.1087 291.519 17.8745C291.945 17.6404 292.412 17.4924 292.895 17.439C292.929 17.4353 292.963 17.432 292.997 17.4292Z" fill="#FFB6B6"/>
<path d="M377.636 62.2485C377.329 60.8408 376.758 59.5041 375.953 58.3091C375.729 57.9691 375.485 57.6427 375.223 57.3318C374.246 56.1678 373.335 55.1 372.49 54.1468C371.977 53.5495 371.477 52.9945 371.006 52.482C368.273 49.4838 366.482 47.8973 365.661 47.7645C365.263 47.6982 364.871 47.6499 364.491 47.6016C362.542 47.3604 361.131 47.1854 361.088 45.1283C361.084 44.8335 361.104 44.539 361.149 44.2475C361.222 43.7582 361.329 43.2745 361.468 42.7998C361.549 42.5308 361.611 42.2567 361.655 41.9795C361.716 41.6237 361.692 41.358 361.498 41.1951C361.257 40.9963 360.853 41.0263 360.093 41.3279C359.972 41.3762 359.834 41.4304 359.689 41.4967C359.64 41.515 359.592 41.5391 359.538 41.5633C359.442 41.6054 359.333 41.6537 359.224 41.7079C358.313 42.1424 356.908 42.1966 355.303 42.0337C350.567 41.5512 344.161 39.1624 344.082 39.132L303.736 23.454L303.362 24.0572L302.475 25.4928L302.167 25.9874L301.817 26.5544L300.291 29.0157L299.519 30.2584L312.55 40.0852L313.967 41.1529L315.186 42.076L340.065 60.8428L349.343 66.9657L351.412 68.3288L360.232 74.1442C361.5 74.9817 362.922 75.5569 364.416 75.8356C365.909 76.1144 367.444 76.0912 368.928 75.7673C370.413 75.4435 371.817 74.8255 373.059 73.95C374.301 73.0745 375.354 71.9591 376.158 70.6696C377.724 68.1604 378.254 65.1409 377.636 62.2485Z" fill="#E6E6E6"/>
<path d="M435.397 298H0.603268C0.443271 298 0.289827 297.936 0.176693 297.823C0.0635579 297.71 0 297.557 0 297.397C0 297.237 0.0635579 297.083 0.176693 296.97C0.289827 296.857 0.443271 296.794 0.603268 296.794H435.397C435.557 296.794 435.71 296.857 435.823 296.97C435.936 297.083 436 297.237 436 297.397C436 297.557 435.936 297.71 435.823 297.823C435.71 297.936 435.557 298 435.397 298Z" fill="#E6E6E6"/>
<path d="M99.4879 100.615L100.618 111.101L99.9536 124.85L130.41 121.232L133.271 100.615L129.625 100.651L99.4879 100.615Z" fill="#FFB6B6"/>
<path d="M125.394 66.7482L113.932 57.6996L107.915 57.3497L98.9872 63.0689L96.8011 74.2213L91.6309 86.7797L99.2142 120.671C99.2142 120.671 99.9254 123.103 98.0616 123.395C96.1978 123.687 96.4213 127.272 96.4213 127.272C96.4213 127.272 96.8008 130.379 94.991 130.652C93.1812 130.926 88.3554 130.926 92.5782 136.355C96.8011 141.784 130.201 121.25 130.201 121.25L135.053 95.797C135.053 95.797 144.461 83.1614 134.329 75.9248L125.394 66.7482Z" fill="#E6E6E6"/>
<path d="M75.3567 143.697C74.8516 143.067 74.4909 142.333 74.2999 141.549C74.1089 140.764 74.0923 139.947 74.2512 139.155C74.4102 138.363 74.7408 137.616 75.2198 136.966C75.6988 136.316 76.3146 135.778 77.0237 135.392L91.4412 87.009L100.456 91.5476L84.7554 137.922C85.3258 139.156 85.4235 140.557 85.0302 141.858C84.6368 143.16 83.7797 144.272 82.6211 144.984C81.4626 145.696 80.0832 145.958 78.7443 145.721C77.4054 145.483 76.2001 144.763 75.3567 143.697Z" fill="#A0616A"/>
<path d="M101.058 62.6213C101.058 62.6213 98.4806 61.2517 96.7179 67.1782C95.3067 71.9227 83.8558 100.183 83.7098 107.054C82.7674 107.254 81.9183 107.761 81.2961 108.497C80.674 109.232 80.3142 110.154 80.2734 111.116L94.4314 113.013C96.9054 110.927 97.5545 108.109 96.5973 107.272L99.6713 98.8768L112.496 72.1656L102.938 63.5782L101.058 62.6213Z" fill="#E6E6E6"/>
<path d="M176.708 127.793C176.891 127.007 176.899 126.19 176.732 125.399C176.565 124.609 176.226 123.866 175.741 123.22C175.255 122.575 174.634 122.044 173.921 121.665C173.208 121.286 172.42 121.068 171.613 121.026L138.54 83.2551L131.524 91.6261L165.736 126.651C165.756 128.01 166.273 129.315 167.191 130.319C168.108 131.322 169.362 131.954 170.715 132.095C172.067 132.236 173.424 131.876 174.529 131.083C175.633 130.29 176.409 129.12 176.708 127.793Z" fill="#A0616A"/>
<path d="M118.473 65.8044C118.473 65.8044 120.204 63.4551 124.356 68.0365C127.68 71.7043 150.227 92.2341 153.33 98.3662C154.266 98.1387 155.251 98.2292 156.13 98.6232C157.009 99.0173 157.732 99.6926 158.185 100.543L146.24 108.376C143.107 107.564 141.303 105.304 141.804 104.136L135.402 97.8951L112.287 79.3562L117.191 67.4803L118.473 65.8044Z" fill="#E6E6E6"/>
<path d="M241.806 169.51C288.451 169.51 326.263 131.698 326.263 85.0558C326.263 38.4133 288.451 0.602005 241.806 0.602005C195.161 0.602005 157.349 38.4133 157.349 85.0558C157.349 131.698 195.161 169.51 241.806 169.51Z" fill="#0F172A"/>
<path opacity="0.2" d="M237.811 114.946C233.942 118.815 228.694 120.989 223.223 120.989C217.751 120.989 212.503 118.815 208.634 114.946C205.309 111.62 203.22 107.258 202.713 102.583C202.206 97.9076 203.312 93.1994 205.846 89.238L201.307 93.8685C197.438 97.7374 195.265 102.985 195.265 108.456C195.265 113.928 197.438 119.175 201.307 123.044C205.176 126.913 210.424 129.086 215.896 129.086C221.367 129.086 226.615 126.913 230.484 123.044L240.543 112.6L240.696 111.951L237.811 114.946Z" fill="black"/>
<path opacity="0.2" d="M247.393 50.4254C251.915 47.3454 257.476 46.188 262.852 47.2078C268.227 48.2276 272.978 51.3411 276.058 55.8633C278.705 59.7506 279.944 64.4255 279.571 69.1134C279.198 73.8013 277.234 78.221 274.006 81.6406L279.328 77.9371C283.85 74.8571 286.964 70.1068 287.984 64.7312C289.004 59.3557 287.846 53.7951 284.766 49.2729C281.686 44.7507 276.935 41.6372 271.56 40.6174C266.184 39.5976 260.623 40.755 256.101 43.8351L244.272 52.2211L244 52.8304L247.393 50.4254Z" fill="black"/>
<path d="M215.896 131.667C211.457 131.667 207.119 130.351 203.428 127.886C199.738 125.42 196.861 121.915 195.163 117.815C193.464 113.715 193.02 109.203 193.886 104.85C194.752 100.497 196.889 96.4983 200.028 93.3601L219.072 73.9312C221.155 71.8447 223.629 70.1892 226.352 69.0592C229.076 67.9293 231.995 67.3471 234.944 67.3459C237.892 67.3447 240.812 67.9246 243.536 69.0524C246.26 70.1801 248.736 71.8337 250.821 73.9185C251.16 74.2579 251.351 74.7181 251.351 75.198C251.351 75.678 251.16 76.1382 250.821 76.4776C250.481 76.8169 250.021 77.0076 249.541 77.0076C249.061 77.0076 248.601 76.8169 248.261 76.4776C244.732 72.9481 239.944 70.9653 234.953 70.9654C229.961 70.9654 225.174 72.9482 221.644 76.4776C218.847 86.3383 212.803 93.1042 202.6 95.9065C200.849 97.6529 199.46 99.7271 198.511 102.011C197.563 104.294 197.073 106.742 197.071 109.215C197.069 111.688 197.554 114.137 198.499 116.422C199.444 118.707 200.83 120.783 202.577 122.533C204.325 124.282 206.4 125.67 208.685 126.617C210.969 127.564 213.418 128.051 215.89 128.051C218.363 128.052 220.812 127.565 223.096 126.618C225.381 125.672 227.457 124.285 229.205 122.536C228.792 118.49 229.974 114.688 239.239 112.116C239.404 111.944 239.601 111.807 239.819 111.711C240.037 111.615 240.272 111.564 240.51 111.559C240.748 111.554 240.984 111.596 241.206 111.683C241.428 111.77 241.63 111.9 241.802 112.065C241.973 112.23 242.11 112.427 242.205 112.645C242.3 112.864 242.351 113.099 242.356 113.337C242.36 113.575 242.317 113.811 242.229 114.033C242.142 114.254 242.012 114.456 241.846 114.627L231.788 125.071C229.707 127.167 227.231 128.83 224.503 129.963C221.775 131.095 218.85 131.674 215.896 131.667Z" fill="white"/>
<path d="M246.814 104.182C243.866 104.19 240.945 103.613 238.222 102.485C235.498 101.357 233.025 99.6996 230.946 97.6093C230.607 97.2698 230.416 96.8095 230.416 96.3295C230.416 95.8496 230.607 95.3893 230.946 95.0499C231.286 94.7106 231.746 94.5199 232.226 94.52C232.706 94.52 233.166 94.7108 233.506 95.0502C235.253 96.7979 237.328 98.1842 239.612 99.1301C241.895 100.076 244.343 100.563 246.814 100.563C249.286 100.563 251.733 100.076 254.017 99.1301C256.3 98.1843 258.375 96.7979 260.123 95.0503C262.535 80.5215 272.368 78.4711 280.915 74.259C282.663 72.5114 284.05 70.4366 284.995 68.1532C285.941 65.8697 286.428 63.4224 286.428 60.9508C286.428 58.4792 285.941 56.0319 284.995 53.7485C284.049 51.465 282.663 49.3903 280.915 47.6426C279.168 45.895 277.093 44.5087 274.809 43.5629C272.526 42.617 270.078 42.1303 267.606 42.1303C265.135 42.1303 262.687 42.6171 260.404 43.563C258.12 44.5088 256.045 45.8951 254.298 47.6428C251.92 54.5023 249.586 61.4428 242.504 59.436C242.336 59.6041 242.136 59.7374 241.917 59.8283C241.697 59.9193 241.462 59.9661 241.224 59.9661C240.744 59.9661 240.284 59.7754 239.945 59.4361C239.605 59.0967 239.415 58.6364 239.415 58.1565C239.415 57.6766 239.605 57.2163 239.945 56.8769L251.738 45.0837C253.822 42.9999 256.296 41.347 259.019 40.2193C261.741 39.0916 264.659 38.5112 267.606 38.5112C270.553 38.5111 273.471 39.0916 276.194 40.2192C278.917 41.3469 281.39 42.9998 283.474 45.0835C285.558 47.1673 287.211 49.641 288.339 52.3635C289.467 55.086 290.047 58.004 290.047 60.9508C290.047 63.8976 289.467 66.8156 288.339 69.5381C287.211 72.2606 285.558 74.7344 283.474 76.8181L262.682 97.6096C260.603 99.6998 258.13 101.357 255.406 102.485C252.683 103.613 249.762 104.19 246.814 104.182Z" fill="white"/>
<path d="M315.186 42.0761C311.639 36.0522 307.37 30.4834 302.475 25.4928C301.383 24.383 300.255 23.2969 299.103 22.2413C298.463 21.6563 297.818 21.0831 297.16 20.522C295.911 19.4483 294.627 18.4106 293.317 17.4095C278.529 6.09808 260.423 -0.0210554 241.804 -1.07494e-05C194.906 -1.07494e-05 156.744 38.155 156.744 85.057C156.741 90.2286 157.212 95.3896 158.149 100.476C158.15 100.504 158.155 100.532 158.161 100.56C158.59 102.895 159.12 105.199 159.736 107.461C164.095 123.428 173.018 137.777 185.412 148.747C197.806 159.718 213.131 166.834 229.51 169.223C245.889 171.613 262.609 169.171 277.62 162.198C292.632 155.226 305.282 144.025 314.021 129.968C315.198 128.074 316.304 126.131 317.339 124.141C323.945 111.395 327.212 97.1821 326.836 82.831C326.459 68.4798 322.451 54.4583 315.186 42.0761ZM241.804 168.908C230.791 168.911 219.886 166.745 209.71 162.533C199.535 158.32 190.289 152.144 182.502 144.357C174.715 136.57 168.538 127.325 164.325 117.15C160.113 106.975 157.946 96.0695 157.95 85.057C157.95 38.8183 195.57 1.20647 241.804 1.20647C252.993 1.21281 264.067 3.45886 274.374 7.81224C284.681 12.1656 294.012 18.5382 301.817 26.5544C303.853 28.6323 305.774 30.8193 307.573 33.1058C309.353 35.3432 311.014 37.6729 312.55 40.0852C318.949 50.1383 323.131 61.4405 324.816 73.2379C326.502 85.0352 325.651 97.0562 322.322 108.499C321.58 111.056 320.712 113.56 319.734 116.015C318.751 118.477 317.659 120.89 316.453 123.23C309.397 136.958 298.701 148.481 285.535 156.537C272.369 164.594 257.24 168.873 241.804 168.908Z" fill="#3F3D56"/>
<path d="M357.518 285.314L351.974 285.267L349.519 263.382L357.703 263.452L357.518 285.314Z" fill="#FFB6B6"/>
<path d="M358.989 282.757L357.541 282.661L351.635 282.257L349.735 282.13L349.699 286.093L340.843 292.101C340.405 292.398 340.074 292.828 339.898 293.326C339.722 293.825 339.71 294.367 339.864 294.872C340.017 295.378 340.328 295.822 340.752 296.138C341.176 296.455 341.689 296.628 342.218 296.632L353.24 296.722L355.17 292.813L355.876 296.746L360.039 296.782L358.989 282.757Z" fill="#2F2E41"/>
<path d="M415.897 281.263L410.597 282.892L401.651 262.77L409.473 260.365L415.897 281.263Z" fill="#FFB6B6"/>
<path d="M416.528 278.384L415.117 278.728L409.368 280.121L407.516 280.574L408.68 284.368L402.05 292.765C401.762 293.131 401.583 293.571 401.533 294.034C401.484 294.497 401.565 294.964 401.768 295.383C401.971 295.802 402.288 296.155 402.683 296.403C403.077 296.65 403.533 296.782 403.999 296.782C404.244 296.782 404.488 296.745 404.723 296.674L415.262 293.434L415.919 289.121L417.783 292.656L421.759 291.432L416.528 278.384Z" fill="#2F2E41"/>
<path d="M346.365 101.294L335.784 132.043L335.435 134.504C332.768 137.035 336.118 137.869 334.862 138.537C333.606 139.204 332.761 141.076 334.454 141.41C336.146 141.745 341.603 261.68 348.8 266.337C355.997 270.994 360.377 274.362 359.055 267.543C358.523 264.796 359.276 250.066 360.366 233.456C360.489 231.573 362.44 229.58 360.748 227.75C359.055 225.92 360.956 224.715 361.062 223.196C362.581 201.506 364.333 180.091 364.333 180.091C364.333 180.091 375.551 218.613 378.463 215.631C381.376 212.648 380.223 219.991 381.114 222.184C381.857 224.018 378.684 227.619 383.348 227.674C388.012 227.73 398.966 265.173 400.078 265.13C402.279 265.047 408.468 265.284 412.143 264.527C413.958 264.154 405.902 235.805 399.175 211.326C398.639 209.373 395.719 209.328 397.597 205.559C399.474 201.79 390.132 177.403 390.933 176.275C393.061 173.282 393.872 171.981 391.773 171.784C389.674 171.588 389.054 172.74 388.941 169.836C388.828 166.932 388.465 159.77 388.465 159.77C388.465 159.77 386.945 131.449 376.3 115.802L375.392 106.505L346.365 101.294Z" fill="#2F2E41"/>
<path d="M372.801 42.5852L358.768 44.5831L357.922 54.7435L350.997 65.5748C350.997 65.5748 335.605 76.406 346.34 93.516C342.255 108.255 338.193 122.39 334.321 131.814C331.305 150.515 358.327 152.307 389.219 145.689C389.219 145.689 388.793 137.693 385.99 133.849C383.186 130.004 384.712 129.165 384.712 129.165L382.753 121.983C383.862 111.603 380.119 110.671 378.36 105.875L383.7 56.1107L372.801 42.5852Z" fill="#E6E6E6"/>
<path d="M305.437 129.568C305.586 128.569 306.119 127.667 306.922 127.055C307.725 126.442 308.736 126.168 309.739 126.289C309.942 126.317 310.143 126.362 310.339 126.423L318.467 115.61L325.405 117.804L312.669 131.412C312.353 132.206 311.783 132.872 311.049 133.308C310.314 133.743 309.456 133.923 308.608 133.82C308.126 133.756 307.662 133.599 307.241 133.356C306.82 133.113 306.451 132.789 306.156 132.404C305.86 132.018 305.643 131.578 305.517 131.109C305.391 130.639 305.359 130.15 305.423 129.668C305.427 129.635 305.432 129.601 305.437 129.568Z" fill="#FFB6B6"/>
<path d="M377.636 62.2485C377.437 62.0011 377.22 61.7598 376.991 61.5245C375.397 59.8823 373.345 58.7596 371.103 58.3033C368.861 57.8469 366.533 58.0782 364.424 58.9668C364.219 59.0511 364.014 59.1477 363.815 59.2443C356.606 62.7851 352.715 65.1439 352.244 66.2479C352.082 66.622 351.943 66.9899 351.804 67.3457C351.671 67.6956 351.545 68.0273 351.412 68.3289C350.857 69.6199 350.218 70.4223 348.589 70.0603C348.048 69.9282 347.528 69.7275 347.038 69.4632C346.815 69.3545 346.61 69.2399 346.417 69.1312C345.717 68.7454 345.21 68.4679 344.867 68.7212C344.535 68.9684 344.523 69.5957 344.824 71.0497C344.924 71.6564 344.908 72.2767 344.776 72.8773C344.377 74.6297 343.753 76.3228 342.918 77.9145C341.667 80.4094 340.261 82.8231 338.707 85.1413L324.355 105.603L323.384 106.985L322.322 108.499L313.852 120.576L314.353 121.088L316.453 123.23L316.917 123.707L317.34 124.141L318.431 125.257L319.457 126.3L342.339 107.66L344.891 105.579L349.464 101.851L358.832 94.2203L376.562 77.812C377.681 76.7845 378.582 75.5415 379.209 74.1576C379.836 72.7738 380.177 71.2776 380.212 69.7587C380.212 69.6561 380.218 69.5595 380.218 69.457C380.225 66.8265 379.311 64.2766 377.636 62.2485Z" fill="#E6E6E6"/>
<path d="M364.376 42.2153C373.036 42.2153 380.056 35.1955 380.056 26.536C380.056 17.8765 373.036 10.8566 364.376 10.8566C355.717 10.8566 348.696 17.8765 348.696 26.536C348.696 35.1955 355.717 42.2153 364.376 42.2153Z" fill="#FFB6B6"/>
<path d="M385.156 48.2776C387.26 51.2893 388.668 54.7316 389.277 58.3548C387.581 59.4397 385.607 60.0095 383.594 59.9952C383.525 59.7316 383.457 59.468 383.379 59.2043C382.795 57.1628 381.927 55.2135 380.801 53.4139C380.955 55.3544 380.692 57.3056 380.029 59.136C378.965 58.6525 377.825 58.3584 376.66 58.2669C375.711 58.2669 374.775 58.4875 373.926 58.9114C372.94 55.6402 372.032 52.6327 371.387 50.4747C371.368 55.8843 363.438 60.6007 354.786 59.9172C354.474 59.7219 357.609 50.8262 357.306 50.6212C356.613 50.1622 355.939 49.6642 355.265 49.176C358.097 44.8014 361.173 40.1144 360.646 39.4113C360.685 40.2804 357.579 44.4597 354.201 48.4046C352.326 47.0278 362.979 24.6276 357.716 22.8114C357.628 23.6023 356.466 23.6023 355.05 23.4363C354.677 22.1313 354.121 20.8854 353.4 19.7354C353.494 20.8939 353.354 22.0593 352.99 23.1629C351.591 23.1633 350.197 23.3105 348.83 23.6023C348.513 23.1045 348.164 22.6282 347.785 22.1766C347.822 22.727 347.806 23.2797 347.736 23.8269C346.34 24.1296 345.187 24.4811 345.021 24.7643C343.928 24.3639 345.793 22.5575 345.109 21.62C343.371 19.2766 345.949 15.8589 347.58 13.4372C350.929 8.47681 358.282 6.75822 363.487 9.73643C363.722 8.92594 364.923 8.3889 366.466 8.02762C367.119 7.88349 367.789 7.82117 368.458 7.84209C375.098 7.95925 384.316 13.4372 384.678 20.0675C384.707 20.7315 384.756 21.4541 384.804 22.2254C385.273 29.6466 384.697 36.4917 389.765 41.9208C391.601 43.8835 391.62 53.1795 390.917 57.9642C389.091 56.0406 387.793 48.5608 385.156 48.2776Z" fill="#2F2E41"/>
<path d="M212.461 87.1743C213.461 87.1743 214.271 86.364 214.271 85.3645C214.271 84.3651 213.461 83.5548 212.461 83.5548C211.462 83.5548 210.652 84.3651 210.652 85.3645C210.652 86.364 211.462 87.1743 212.461 87.1743Z" fill="#0F172A"/>
<path d="M269.772 85.9678C270.771 85.9678 271.582 85.1575 271.582 84.1581C271.582 83.1586 270.771 82.3483 269.772 82.3483C268.772 82.3483 267.962 83.1586 267.962 84.1581C267.962 85.1575 268.772 85.9678 269.772 85.9678Z" fill="#0F172A"/>
<path d="M97.4968 33.0556C96.1195 36.4857 92.2338 43.2311 91.7075 46.9109L91.9444 46.6779C92.3963 47.4498 92.9098 48.184 93.4799 48.8732C94.5017 47.8002 95.7358 46.9516 97.1036 46.3817C96.3567 47.9142 95.9241 49.5807 95.8314 51.2829C97.2978 55.8792 104.077 53.8324 108.049 53.3305C112.015 57.8673 117.292 59.0512 124.203 56.4429C126.135 56.6419 128.299 56.7626 129.653 55.6207C131.007 54.4788 130.201 52.364 130.929 50.7645C136.12 39.3711 131.33 35.2604 127.26 30.0942C126.365 28.9573 126.368 27.2607 125.279 26.176C123.767 24.6725 121.449 24.21 119.312 23.8396C119.867 23.8688 120.42 23.7547 120.919 23.5081C121.417 23.2616 121.843 22.891 122.157 22.432C122.432 21.9695 122.574 21.4401 122.567 20.9021C122.56 20.3641 122.405 19.8384 122.118 19.383C121.354 18.1161 119.766 17.3794 118.234 17.1953C116.724 17.0928 115.208 17.2232 113.738 17.5817C112.786 17.7069 111.864 18.0016 111.016 18.4518C110.616 18.6653 110.29 18.9959 110.083 19.3994C109.876 19.8028 109.797 20.2599 109.856 20.7096C109.984 21.1248 110.204 21.5059 110.499 21.8243C110.794 22.1428 111.158 22.3905 111.563 22.5488C112.179 22.8096 112.828 22.9872 113.492 23.0769C110.444 22.6814 107.347 23.2233 104.615 24.6307C101.19 26.4574 98.8789 29.6273 97.4968 33.0556Z" fill="#2F2E41"/>
<path d="M116.041 52.286C122.802 52.286 128.283 46.8053 128.283 40.0446C128.283 33.2838 122.802 27.8032 116.041 27.8032C109.28 27.8032 103.799 33.2838 103.799 40.0446C103.799 46.8053 109.28 52.286 116.041 52.286Z" fill="#A0616A"/>
<path d="M104.261 33.4809C104.971 35.6261 106.999 36.3173 108.874 36.7484C109.465 36.8862 110.06 37.0145 110.66 37.1288C110.882 36.8519 111.117 36.5806 111.363 36.3241C112.385 35.251 113.619 34.4025 114.987 33.8326C114.395 35.0431 114.002 36.3407 113.823 37.676C114.956 37.8404 116.096 37.9748 117.242 38.0791C118.211 38.2855 119.223 38.1115 120.068 37.5931C120.913 37.0747 121.526 36.2515 121.781 35.2937C122.825 36.9996 124.058 38.6062 125.745 39.2838C126.71 39.6304 127.76 39.6589 128.742 39.3651C129.724 39.0713 130.586 38.4708 131.202 37.6514C132.174 36.3148 132.849 34.785 133.179 33.1653C133.658 31.2657 133.924 29.0775 132.984 27.8722C132.231 26.8968 130.932 26.8793 129.734 26.9658C127.088 27.1687 124.471 27.6432 121.923 28.3818L121.707 28.8668C122.145 26.2362 121.195 23.7051 119.438 22.805C118.253 22.2032 116.826 22.3041 115.441 22.4262C113.661 22.5056 111.902 22.8457 110.221 23.4356C108.292 24.1775 106.64 25.4971 105.49 27.2139C104.26 29.0814 103.648 31.6284 104.261 33.4809Z" fill="#2F2E41"/>
<path d="M121.713 22.0395C121.592 22.0038 121.905 22.0496 121.797 22.0525C121.85 22.0494 121.904 22.0419 121.957 22.0301C121.966 22.0283 122.088 21.9894 122.007 22.018C122.188 21.9636 122.351 21.8578 122.474 21.7133C122.761 21.3577 122.987 20.9562 123.141 20.5256C123.335 19.9567 123.648 19.4353 124.058 18.9957C124.175 18.8787 124.317 18.7909 124.474 18.7393C124.631 18.6876 124.798 18.6737 124.961 18.6986C125.124 18.7235 125.279 18.7866 125.413 18.8826C125.547 18.9786 125.657 19.105 125.733 19.2513C125.888 19.816 125.835 20.4175 125.584 20.9464C125.408 21.4846 125.147 21.991 124.811 22.446C124.246 23.19 123.478 23.7538 122.599 24.0687C121.581 24.4383 120.471 24.47 119.434 24.1591C119.297 24.1023 119.18 24.0068 119.096 23.8844C119.012 23.762 118.966 23.6178 118.963 23.4695C118.96 23.3212 119 23.1752 119.078 23.0492C119.156 22.9232 119.269 22.8228 119.404 22.76L121.133 22.0521C121.224 22.012 121.322 21.9903 121.422 21.9881C121.521 21.986 121.62 22.0034 121.713 22.0395C121.806 22.0755 121.89 22.1294 121.962 22.1982C122.034 22.267 122.092 22.3493 122.132 22.4403C122.172 22.5313 122.193 22.6294 122.196 22.7288C122.198 22.8282 122.18 22.9271 122.144 23.0198C122.108 23.1125 122.054 23.1972 121.986 23.2691C121.917 23.3409 121.834 23.3985 121.743 23.4386L120.014 24.1465L119.983 22.7474C120.199 22.8097 120.421 22.8476 120.645 22.8606C120.885 22.8845 121.126 22.8743 121.362 22.8303C121.589 22.8006 121.811 22.7464 122.026 22.6685C122.164 22.6183 122.298 22.5612 122.43 22.4973C122.478 22.4741 122.525 22.45 122.572 22.425C122.569 22.4268 122.77 22.3096 122.682 22.3646C122.906 22.2217 123.115 22.0582 123.309 21.8763C123.377 21.8118 123.44 21.7418 123.497 21.6671C123.595 21.546 123.687 21.4193 123.77 21.2876C123.941 21.0088 124.076 20.7097 124.172 20.3975C124.216 20.2662 124.253 20.1328 124.283 19.9977C124.292 19.9235 124.305 19.85 124.323 19.7777C124.388 19.6053 124.311 19.8783 124.385 19.953L124.704 20.1879C124.764 20.2058 124.827 20.2099 124.889 20.2C124.95 20.1901 125.009 20.1665 125.06 20.1309C125.098 20.0777 125.09 20.0865 125.035 20.1573C124.972 20.2406 124.915 20.3279 124.862 20.4185C124.748 20.6318 124.645 20.8508 124.553 21.0746C124.362 21.5506 124.122 22.005 123.835 22.4299C123.554 22.8597 123.145 23.1898 122.665 23.3732C122.185 23.5566 121.66 23.5839 121.164 23.4512C120.978 23.3771 120.828 23.2328 120.747 23.0494C120.667 22.866 120.661 22.6582 120.732 22.4709C120.809 22.2862 120.953 22.1382 121.136 22.0578C121.319 21.9774 121.525 21.9708 121.713 22.0395Z" fill="#2F2E41"/>
</g>
<defs>
<clipPath id="clip0_2_142">
<rect width="436" height="298" fill="white"/>
</clipPath>
</defs>
</svg>
